<mxfile host="www.draw.io" modified="2020-02-19T10:29:15.268Z" agent="Mozilla/5.0 (Macintosh; Intel Mac OS X 10_14_5) AppleWebKit/537.36 (KHTML, like Gecko) Chrome/78.0.3904.108 Safari/537.36" etag="lDiY1WJE8wyjxKlrhX4q" version="12.7.2" type="github">
  <diagram id="K7Orz3m90_0cKD-MIqzq" name="第 1 页">
    <mxGraphModel dx="926" dy="528" grid="1" gridSize="10" guides="1" tooltips="1" connect="1" arrows="1" fold="1" page="1" pageScale="1" pageWidth="827" pageHeight="1169" math="0" shadow="0">
      <root>
        <mxCell id="0" />
        <mxCell id="1" parent="0" />
        <mxCell id="iDH-TRiVHwjShEmmywJ--8" style="edgeStyle=orthogonalEdgeStyle;rounded=0;orthogonalLoop=1;jettySize=auto;html=1;entryX=0;entryY=0.5;entryDx=0;entryDy=0;" edge="1" parent="1" source="iDH-TRiVHwjShEmmywJ--1" target="iDH-TRiVHwjShEmmywJ--2">
          <mxGeometry relative="1" as="geometry" />
        </mxCell>
        <mxCell id="iDH-TRiVHwjShEmmywJ--1" value="我们的网关" style="rounded=0;whiteSpace=wrap;html=1;" vertex="1" parent="1">
          <mxGeometry x="60" y="110" width="80" height="100" as="geometry" />
        </mxCell>
        <mxCell id="iDH-TRiVHwjShEmmywJ--6" style="edgeStyle=orthogonalEdgeStyle;rounded=0;orthogonalLoop=1;jettySize=auto;html=1;" edge="1" parent="1" source="iDH-TRiVHwjShEmmywJ--2" target="iDH-TRiVHwjShEmmywJ--5">
          <mxGeometry relative="1" as="geometry" />
        </mxCell>
        <mxCell id="iDH-TRiVHwjShEmmywJ--9" style="edgeStyle=orthogonalEdgeStyle;rounded=0;orthogonalLoop=1;jettySize=auto;html=1;exitX=0;exitY=0.5;exitDx=0;exitDy=0;" edge="1" parent="1" source="iDH-TRiVHwjShEmmywJ--2">
          <mxGeometry relative="1" as="geometry">
            <mxPoint x="140" y="160" as="targetPoint" />
          </mxGeometry>
        </mxCell>
        <mxCell id="iDH-TRiVHwjShEmmywJ--2" value="消息队列" style="rounded=0;whiteSpace=wrap;html=1;" vertex="1" parent="1">
          <mxGeometry x="220" y="120" width="120" height="80" as="geometry" />
        </mxCell>
        <mxCell id="iDH-TRiVHwjShEmmywJ--7" style="edgeStyle=orthogonalEdgeStyle;rounded=0;orthogonalLoop=1;jettySize=auto;html=1;exitX=0;exitY=0.5;exitDx=0;exitDy=0;entryX=1;entryY=0.5;entryDx=0;entryDy=0;" edge="1" parent="1" source="iDH-TRiVHwjShEmmywJ--5" target="iDH-TRiVHwjShEmmywJ--2">
          <mxGeometry relative="1" as="geometry">
            <mxPoint x="380" y="160" as="targetPoint" />
          </mxGeometry>
        </mxCell>
        <mxCell id="iDH-TRiVHwjShEmmywJ--12" style="edgeStyle=orthogonalEdgeStyle;rounded=0;orthogonalLoop=1;jettySize=auto;html=1;exitX=1;exitY=0.5;exitDx=0;exitDy=0;entryX=0;entryY=0.5;entryDx=0;entryDy=0;" edge="1" parent="1" source="iDH-TRiVHwjShEmmywJ--5" target="iDH-TRiVHwjShEmmywJ--10">
          <mxGeometry relative="1" as="geometry" />
        </mxCell>
        <mxCell id="iDH-TRiVHwjShEmmywJ--5" value="&lt;font style=&quot;font-size: 12px&quot;&gt;mqtt客户端&lt;br&gt;(onenet&lt;span style=&quot;color: rgb(25 , 31 , 37) ; font-family: , , &amp;#34;pingfang sc&amp;#34; , &amp;#34;hiragino sans gb&amp;#34; , &amp;#34;segoe ui&amp;#34; , , &amp;#34;roboto&amp;#34; , &amp;#34;droid sans&amp;#34; , &amp;#34;helvetica neue&amp;#34; , sans-serif ; text-align: left ; white-space: pre-wrap ; background-color: rgb(201 , 231 , 255)&quot;&gt;协议适配服务 &lt;/span&gt;&lt;/font&gt;)" style="rounded=0;whiteSpace=wrap;html=1;" vertex="1" parent="1">
          <mxGeometry x="460" y="130" width="140" height="60" as="geometry" />
        </mxCell>
        <mxCell id="iDH-TRiVHwjShEmmywJ--13" style="edgeStyle=orthogonalEdgeStyle;rounded=0;orthogonalLoop=1;jettySize=auto;html=1;exitX=0;exitY=0.5;exitDx=0;exitDy=0;" edge="1" parent="1" source="iDH-TRiVHwjShEmmywJ--10">
          <mxGeometry relative="1" as="geometry">
            <mxPoint x="600" y="160" as="targetPoint" />
          </mxGeometry>
        </mxCell>
        <mxCell id="iDH-TRiVHwjShEmmywJ--10" value="onenet" style="rounded=0;whiteSpace=wrap;html=1;" vertex="1" parent="1">
          <mxGeometry x="670" y="100" width="130" height="120" as="geometry" />
        </mxCell>
      </root>
    </mxGraphModel>
  </diagram>
</mxfile>
